<svg version="1.1" xmlns="http://www.w3.org/2000/svg" viewBox="0 0 1660 1199" width="1660" height="1199"><!-- svg-source:excalidraw --><metadata></metadata><defs><style class="style-fonts">
      </style></defs><rect x="0" y="0" width="1660" height="1199" fill="#ffffff"></rect><g transform="translate(50 46) rotate(0 550 22.5)"><text x="0" y="28.640625" font-family="Helvetica, sans-serif, Segoe UI Emoji" font-size="32px" fill="#111827" text-anchor="start" style="white-space: pre;" direction="ltr" dominant-baseline="alphabetic">Workflows GitLab CI/CD — MicroCRM — V8</text></g><g transform="translate(50 98) rotate(0 450 15)"><text x="0" y="16.1103515625" font-family="Helvetica, sans-serif, Segoe UI Emoji" font-size="18px" fill="#475569" text-anchor="start" style="white-space: pre;" direction="ltr" dominant-baseline="alphabetic">Vue d’ensemble · Web DEV = infrastructure · RC / release finale = application</text></g><g transform="translate(950 10) rotate(0 90 14)"><text x="0" y="16.1103515625" font-family="Helvetica, sans-serif, Segoe UI Emoji" font-size="18px" fill="#111827" text-anchor="start" style="white-space: pre;" direction="ltr" dominant-baseline="alphabetic">LÉGENDE</text></g><g stroke-linecap="round"><g stroke-opacity="0.8" fill-opacity="0.8" transform="translate(950 51) rotate(0 32.5 0)"><path d="M0 0 C24.19 0, 48.39 0, 65 0 M0 0 C16.57 0, 33.14 0, 65 0" stroke="#374151" stroke-width="2" fill="none"></path></g></g><mask></mask><g transform="translate(1035 39) rotate(0 250 12.5)"><text x="0" y="13.42529296875" font-family="Helvetica, sans-serif, Segoe UI Emoji" font-size="15px" fill="#111827" text-anchor="start" style="white-space: pre;" direction="ltr" dominant-baseline="alphabetic">trait plein = need GitLab affiché</text></g><g stroke-linecap="round" transform="translate(950 76) rotate(0 32.5 14)"><path d="M7 0 C19.13 0, 31.26 0, 58 0 C62.67 0, 65 2.33, 65 7 C65 10.07, 65 13.14, 65 21 C65 25.67, 62.67 28, 58 28 C40.26 28, 22.52 28, 7 28 C2.33 28, 0 25.67, 0 21 C0 17.07, 0 13.14, 0 7 C0 2.33, 2.33 0, 7 0" stroke="none" stroke-width="0" fill="#fff1f2"></path><path d="M7 0 C23.55 0, 40.11 0, 58 0 M58 0 C62.67 0, 65 2.33, 65 7 M65 7 C65 11.01, 65 15.02, 65 21 M65 21 C65 25.67, 62.67 28, 58 28 M58 28 C41.47 28, 24.94 28, 7 28 M7 28 C2.33 28, 0 25.67, 0 21 M0 21 C0 17.81, 0 14.62, 0 7 M0 7 C0 2.33, 2.33 0, 7 0" stroke="#e11d48" stroke-width="2.5" fill="none" stroke-dasharray="8 10"></path></g><g transform="translate(1035 75) rotate(0 250 12.5)"><text x="0" y="13.42529296875" font-family="Helvetica, sans-serif, Segoe UI Emoji" font-size="15px" fill="#111827" text-anchor="start" style="white-space: pre;" direction="ltr" dominant-baseline="alphabetic">contour pointillé = job conditionnel ou manuel</text></g><g transform="translate(1035 108) rotate(0 250 12.5)"><text x="0" y="13.42529296875" font-family="Helvetica, sans-serif, Segoe UI Emoji" font-size="15px" fill="#111827" text-anchor="start" style="white-space: pre;" direction="ltr" dominant-baseline="alphabetic">artifact: ... = artefact utile pour la suite</text></g><g transform="translate(1035 134) rotate(0 260 12.5)"><text x="0" y="12.5302734375" font-family="Helvetica, sans-serif, Segoe UI Emoji" font-size="14px" fill="#4b5563" text-anchor="start" style="white-space: pre;" direction="ltr" dominant-baseline="alphabetic">aucun trait entrant = aucun need actif dans ce workflow</text></g><g transform="translate(1035 160) rotate(0 280 12.5)"><text x="0" y="12.5302734375" font-family="Helvetica, sans-serif, Segoe UI Emoji" font-size="14px" fill="#4b5563" text-anchor="start" style="white-space: pre;" direction="ltr" dominant-baseline="alphabetic">encadré “needs directs” = needs listés sans trait long</text></g><a href="[[01_MERGE_REQUEST]]"><g stroke-linecap="round" transform="translate(50 206) rotate(0 310 47.5)"><path d="M23.75 0 C210.91 0, 398.07 0, 596.25 0 C612.08 0, 620 7.92, 620 23.75 C620 37.72, 620 51.69, 620 71.25 C620 87.08, 612.08 95, 596.25 95 C444.44 95, 292.62 95, 23.75 95 C7.92 95, 0 87.08, 0 71.25 C0 52.53, 0 33.81, 0 23.75 C0 7.92, 7.92 0, 23.75 0" stroke="none" stroke-width="0" fill="#f5f3ff"></path><path d="M23.75 0 C219.45 0, 415.15 0, 596.25 0 M23.75 0 C180.1 0, 336.45 0, 596.25 0 M596.25 0 C612.08 0, 620 7.92, 620 23.75 M596.25 0 C612.08 0, 620 7.92, 620 23.75 M620 23.75 C620 41.58, 620 59.41, 620 71.25 M620 23.75 C620 38.16, 620 52.57, 620 71.25 M620 71.25 C620 87.08, 612.08 95, 596.25 95 M620 71.25 C620 87.08, 612.08 95, 596.25 95 M596.25 95 C429.75 95, 263.24 95, 23.75 95 M596.25 95 C388.39 95, 180.52 95, 23.75 95 M23.75 95 C7.92 95, 0 87.08, 0 71.25 M23.75 95 C7.92 95, 0 87.08, 0 71.25 M0 71.25 C0 54.3, 0 37.36, 0 23.75 M0 71.25 C0 59.14, 0 47.02, 0 23.75 M0 23.75 C0 7.92, 7.92 0, 23.75 0 M0 23.75 C0 7.92, 7.92 0, 23.75 0" stroke="#7c3aed" stroke-width="2" fill="none"></path></g></a><g transform="translate(70 233) rotate(0 290 20)"><text x="290" y="17.900390625" font-family="Helvetica, sans-serif, Segoe UI Emoji" font-size="20px" fill="#111827" text-anchor="middle" style="white-space: pre;" direction="ltr" dominant-baseline="alphabetic">01  Merge Request</text></g><a href="[[02_PUSH_DEV]]"><g stroke-linecap="round" transform="translate(770 206) rotate(0 310 47.5)"><path d="M23.75 0 C147.14 0, 270.53 0, 596.25 0 C612.08 0, 620 7.92, 620 23.75 C620 34.27, 620 44.78, 620 71.25 C620 87.08, 612.08 95, 596.25 95 C471.22 95, 346.19 95, 23.75 95 C7.92 95, 0 87.08, 0 71.25 C0 54.47, 0 37.69, 0 23.75 C0 7.92, 7.92 0, 23.75 0" stroke="none" stroke-width="0" fill="#fff1f2"></path><path d="M23.75 0 C194.15 0, 364.55 0, 596.25 0 M23.75 0 C174.17 0, 324.6 0, 596.25 0 M596.25 0 C612.08 0, 620 7.92, 620 23.75 M596.25 0 C612.08 0, 620 7.92, 620 23.75 M620 23.75 C620 41, 620 58.25, 620 71.25 M620 23.75 C620 33.67, 620 43.59, 620 71.25 M620 71.25 C620 87.08, 612.08 95, 596.25 95 M620 71.25 C620 87.08, 612.08 95, 596.25 95 M596.25 95 C465.69 95, 335.13 95, 23.75 95 M596.25 95 C437.64 95, 279.03 95, 23.75 95 M23.75 95 C7.92 95, 0 87.08, 0 71.25 M23.75 95 C7.92 95, 0 87.08, 0 71.25 M0 71.25 C0 56.97, 0 42.69, 0 23.75 M0 71.25 C0 57.76, 0 44.26, 0 23.75 M0 23.75 C0 7.92, 7.92 0, 23.75 0 M0 23.75 C0 7.92, 7.92 0, 23.75 0" stroke="#e11d48" stroke-width="2" fill="none"></path></g></a><g transform="translate(790 233) rotate(0 290 20)"><text x="290" y="17.900390625" font-family="Helvetica, sans-serif, Segoe UI Emoji" font-size="20px" fill="#111827" text-anchor="middle" style="white-space: pre;" direction="ltr" dominant-baseline="alphabetic">02  Push DEV</text></g><a href="[[03_PUSH_MAIN]]"><g stroke-linecap="round" transform="translate(50 341) rotate(0 310 47.5)"><path d="M23.75 0 C247.45 0, 471.14 0, 596.25 0 C612.08 0, 620 7.92, 620 23.75 C620 42.63, 620 61.5, 620 71.25 C620 87.08, 612.08 95, 596.25 95 C396.33 95, 196.41 95, 23.75 95 C7.92 95, 0 87.08, 0 71.25 C0 55.84, 0 40.42, 0 23.75 C0 7.92, 7.92 0, 23.75 0" stroke="none" stroke-width="0" fill="#eff6ff"></path><path d="M23.75 0 C176.35 0, 328.94 0, 596.25 0 M23.75 0 C141.67 0, 259.58 0, 596.25 0 M596.25 0 C612.08 0, 620 7.92, 620 23.75 M596.25 0 C612.08 0, 620 7.92, 620 23.75 M620 23.75 C620 36.08, 620 48.42, 620 71.25 M620 23.75 C620 33.46, 620 43.17, 620 71.25 M620 71.25 C620 87.08, 612.08 95, 596.25 95 M620 71.25 C620 87.08, 612.08 95, 596.25 95 M596.25 95 C381.08 95, 165.91 95, 23.75 95 M596.25 95 C476.56 95, 356.87 95, 23.75 95 M23.75 95 C7.92 95, 0 87.08, 0 71.25 M23.75 95 C7.92 95, 0 87.08, 0 71.25 M0 71.25 C0 53.53, 0 35.8, 0 23.75 M0 71.25 C0 57.78, 0 44.3, 0 23.75 M0 23.75 C0 7.92, 7.92 0, 23.75 0 M0 23.75 C0 7.92, 7.92 0, 23.75 0" stroke="#2563eb" stroke-width="2" fill="none"></path></g></a><g transform="translate(70 368) rotate(0 290 20)"><text x="290" y="17.900390625" font-family="Helvetica, sans-serif, Segoe UI Emoji" font-size="20px" fill="#111827" text-anchor="middle" style="white-space: pre;" direction="ltr" dominant-baseline="alphabetic">03  Push MAIN</text></g><a href="[[04_PIPELINE_PLANIFIEE]]"><g stroke-linecap="round" transform="translate(770 341) rotate(0 310 47.5)"><path d="M23.75 0 C250.19 0, 476.62 0, 596.25 0 C612.08 0, 620 7.92, 620 23.75 C620 39.36, 620 54.96, 620 71.25 C620 87.08, 612.08 95, 596.25 95 C439.88 95, 283.5 95, 23.75 95 C7.92 95, 0 87.08, 0 71.25 C0 61.59, 0 51.92, 0 23.75 C0 7.92, 7.92 0, 23.75 0" stroke="none" stroke-width="0" fill="#f0fdf4"></path><path d="M23.75 0 C174.03 0, 324.31 0, 596.25 0 M23.75 0 C183.9 0, 344.06 0, 596.25 0 M596.25 0 C612.08 0, 620 7.92, 620 23.75 M596.25 0 C612.08 0, 620 7.92, 620 23.75 M620 23.75 C620 34.41, 620 45.07, 620 71.25 M620 23.75 C620 40.88, 620 58.01, 620 71.25 M620 71.25 C620 87.08, 612.08 95, 596.25 95 M620 71.25 C620 87.08, 612.08 95, 596.25 95 M596.25 95 C381.18 95, 166.1 95, 23.75 95 M596.25 95 C465.13 95, 334.01 95, 23.75 95 M23.75 95 C7.92 95, 0 87.08, 0 71.25 M23.75 95 C7.92 95, 0 87.08, 0 71.25 M0 71.25 C0 59.59, 0 47.93, 0 23.75 M0 71.25 C0 55.34, 0 39.43, 0 23.75 M0 23.75 C0 7.92, 7.92 0, 23.75 0 M0 23.75 C0 7.92, 7.92 0, 23.75 0" stroke="#16a34a" stroke-width="2" fill="none"></path></g></a><g transform="translate(790 368) rotate(0 290 20)"><text x="290" y="17.900390625" font-family="Helvetica, sans-serif, Segoe UI Emoji" font-size="20px" fill="#111827" text-anchor="middle" style="white-space: pre;" direction="ltr" dominant-baseline="alphabetic">04  Pipeline planifiée</text></g><a href="[[05_WEB_DEV_INFRASTRUCTURE]]"><g stroke-linecap="round" transform="translate(50 476) rotate(0 310 47.5)"><path d="M23.75 0 C236.53 0, 449.32 0, 596.25 0 C612.08 0, 620 7.92, 620 23.75 C620 33.34, 620 42.93, 620 71.25 C620 87.08, 612.08 95, 596.25 95 C438.82 95, 281.38 95, 23.75 95 C7.92 95, 0 87.08, 0 71.25 C0 58.79, 0 46.34, 0 23.75 C0 7.92, 7.92 0, 23.75 0" stroke="none" stroke-width="0" fill="#fff7ed"></path><path d="M23.75 0 C246.11 0, 468.46 0, 596.25 0 M23.75 0 C152.76 0, 281.78 0, 596.25 0 M596.25 0 C612.08 0, 620 7.92, 620 23.75 M596.25 0 C612.08 0, 620 7.92, 620 23.75 M620 23.75 C620 42, 620 60.25, 620 71.25 M620 23.75 C620 42.08, 620 60.41, 620 71.25 M620 71.25 C620 87.08, 612.08 95, 596.25 95 M620 71.25 C620 87.08, 612.08 95, 596.25 95 M596.25 95 C446.42 95, 296.6 95, 23.75 95 M596.25 95 C468.16 95, 340.07 95, 23.75 95 M23.75 95 C7.92 95, 0 87.08, 0 71.25 M23.75 95 C7.92 95, 0 87.08, 0 71.25 M0 71.25 C0 53.32, 0 35.4, 0 23.75 M0 71.25 C0 60.86, 0 50.46, 0 23.75 M0 23.75 C0 7.92, 7.92 0, 23.75 0 M0 23.75 C0 7.92, 7.92 0, 23.75 0" stroke="#f97316" stroke-width="2" fill="none"></path></g></a><g transform="translate(70 503) rotate(0 290 20)"><text x="290" y="17.900390625" font-family="Helvetica, sans-serif, Segoe UI Emoji" font-size="20px" fill="#111827" text-anchor="middle" style="white-space: pre;" direction="ltr" dominant-baseline="alphabetic">05  Web DEV · infrastructure</text></g><a href="[[06_RELEASE_RC]]"><g stroke-linecap="round" transform="translate(770 476) rotate(0 310 47.5)"><path d="M23.75 0 C174.67 0, 325.59 0, 596.25 0 C612.08 0, 620 7.92, 620 23.75 C620 37.01, 620 50.26, 620 71.25 C620 87.08, 612.08 95, 596.25 95 C368.67 95, 141.1 95, 23.75 95 C7.92 95, 0 87.08, 0 71.25 C0 54.58, 0 37.91, 0 23.75 C0 7.92, 7.92 0, 23.75 0" stroke="none" stroke-width="0" fill="#f0fdfa"></path><path d="M23.75 0 C150.3 0, 276.85 0, 596.25 0 M23.75 0 C151.89 0, 280.02 0, 596.25 0 M596.25 0 C612.08 0, 620 7.92, 620 23.75 M596.25 0 C612.08 0, 620 7.92, 620 23.75 M620 23.75 C620 34.07, 620 44.4, 620 71.25 M620 23.75 C620 38.37, 620 52.98, 620 71.25 M620 71.25 C620 87.08, 612.08 95, 596.25 95 M620 71.25 C620 87.08, 612.08 95, 596.25 95 M596.25 95 C450.44 95, 304.63 95, 23.75 95 M596.25 95 C394.48 95, 192.7 95, 23.75 95 M23.75 95 C7.92 95, 0 87.08, 0 71.25 M23.75 95 C7.92 95, 0 87.08, 0 71.25 M0 71.25 C0 59.92, 0 48.58, 0 23.75 M0 71.25 C0 60.75, 0 50.25, 0 23.75 M0 23.75 C0 7.92, 7.92 0, 23.75 0 M0 23.75 C0 7.92, 7.92 0, 23.75 0" stroke="#0f766e" stroke-width="2" fill="none"></path></g></a><g transform="translate(790 503) rotate(0 290 20)"><text x="290" y="17.900390625" font-family="Helvetica, sans-serif, Segoe UI Emoji" font-size="20px" fill="#111827" text-anchor="middle" style="white-space: pre;" direction="ltr" dominant-baseline="alphabetic">06  Release Candidate</text></g><a href="[[07_PROMOTION_RC_VERS_RELEASE]]"><g stroke-linecap="round" transform="translate(50 611) rotate(0 310 47.5)"><path d="M23.75 0 C215.23 0, 406.7 0, 596.25 0 C612.08 0, 620 7.92, 620 23.75 C620 42.52, 620 61.29, 620 71.25 C620 87.08, 612.08 95, 596.25 95 C417.05 95, 237.85 95, 23.75 95 C7.92 95, 0 87.08, 0 71.25 C0 60.8, 0 50.35, 0 23.75 C0 7.92, 7.92 0, 23.75 0" stroke="none" stroke-width="0" fill="#ecfeff"></path><path d="M23.75 0 C193.26 0, 362.77 0, 596.25 0 M23.75 0 C183.68 0, 343.6 0, 596.25 0 M596.25 0 C612.08 0, 620 7.92, 620 23.75 M596.25 0 C612.08 0, 620 7.92, 620 23.75 M620 23.75 C620 33.85, 620 43.94, 620 71.25 M620 23.75 C620 33.34, 620 42.93, 620 71.25 M620 71.25 C620 87.08, 612.08 95, 596.25 95 M620 71.25 C620 87.08, 612.08 95, 596.25 95 M596.25 95 C452.8 95, 309.34 95, 23.75 95 M596.25 95 C459.02 95, 321.79 95, 23.75 95 M23.75 95 C7.92 95, 0 87.08, 0 71.25 M23.75 95 C7.92 95, 0 87.08, 0 71.25 M0 71.25 C0 58.66, 0 46.06, 0 23.75 M0 71.25 C0 53.3, 0 35.35, 0 23.75 M0 23.75 C0 7.92, 7.92 0, 23.75 0 M0 23.75 C0 7.92, 7.92 0, 23.75 0" stroke="#0891b2" stroke-width="2" fill="none"></path></g></a><g transform="translate(70 638) rotate(0 290 20)"><text x="290" y="17.900390625" font-family="Helvetica, sans-serif, Segoe UI Emoji" font-size="20px" fill="#111827" text-anchor="middle" style="white-space: pre;" direction="ltr" dominant-baseline="alphabetic">07  Promotion RC · release finale · production</text></g><g transform="translate(10 1164) rotate(0 820 12.5)"><text x="0" y="11.63525390625" font-family="Helvetica, sans-serif, Segoe UI Emoji" font-size="13px" fill="#475569" text-anchor="start" style="white-space: pre;" direction="ltr" dominant-baseline="alphabetic">Source : configuration locale · branche fix/semantic-release-web-only · commit b860916</text></g><g stroke-linecap="round" transform="translate(10 746) rotate(0 820 199)"><path d="M32 0 C526.66 0, 1021.32 0, 1608 0 C1629.33 0, 1640 10.67, 1640 32 C1640 107.83, 1640 183.65, 1640 366 C1640 387.33, 1629.33 398, 1608 398 C1249.12 398, 890.23 398, 32 398 C10.67 398, 0 387.33, 0 366 C0 236.03, 0 106.06, 0 32 C0 10.67, 10.67 0, 32 0" stroke="none" stroke-width="0" fill="#f8fafc"></path><path d="M32 0 C568.52 0, 1105.03 0, 1608 0 M32 0 C523.61 0, 1015.23 0, 1608 0 M1608 0 C1629.33 0, 1640 10.67, 1640 32 M1608 0 C1629.33 0, 1640 10.67, 1640 32 M1640 32 C1640 120.8, 1640 209.59, 1640 366 M1640 32 C1640 134.54, 1640 237.07, 1640 366 M1640 366 C1640 387.33, 1629.33 398, 1608 398 M1640 366 C1640 387.33, 1629.33 398, 1608 398 M1608 398 C1261.36 398, 914.73 398, 32 398 M1608 398 C1176.29 398, 744.58 398, 32 398 M32 398 C10.67 398, 0 387.33, 0 366 M32 398 C10.67 398, 0 387.33, 0 366 M0 366 C0 252.57, 0 139.15, 0 32 M0 366 C0 247.23, 0 128.46, 0 32 M0 32 C0 10.67, 10.67 0, 32 0 M0 32 C0 10.67, 10.67 0, 32 0" stroke="#94a3b8" stroke-width="1" fill="none"></path></g><g transform="translate(30 759) rotate(0 800 11.5)"><text x="0" y="16.1103515625" font-family="Helvetica, sans-serif, Segoe UI Emoji" font-size="18px" fill="#334155" text-anchor="start" style="white-space: pre;" direction="ltr" dominant-baseline="alphabetic">LÉGENDE ARTEFACTS</text></g><g stroke-linecap="round" transform="translate(30 794) rotate(0 395 27)"><path d="M13.5 0 C232.53 0, 451.57 0, 776.5 0 C785.5 0, 790 4.5, 790 13.5 C790 22.01, 790 30.51, 790 40.5 C790 49.5, 785.5 54, 776.5 54 C488.46 54, 200.41 54, 13.5 54 C4.5 54, 0 49.5, 0 40.5 C0 31.67, 0 22.84, 0 13.5 C0 4.5, 4.5 0, 13.5 0" stroke="none" stroke-width="0" fill="#ffffff"></path><path d="M13.5 0 C243.03 0, 472.57 0, 776.5 0 M13.5 0 C275.62 0, 537.73 0, 776.5 0 M776.5 0 C785.5 0, 790 4.5, 790 13.5 M776.5 0 C785.5 0, 790 4.5, 790 13.5 M790 13.5 C790 23.31, 790 33.12, 790 40.5 M790 13.5 C790 20.84, 790 28.17, 790 40.5 M790 40.5 C790 49.5, 785.5 54, 776.5 54 M790 40.5 C790 49.5, 785.5 54, 776.5 54 M776.5 54 C480.05 54, 183.6 54, 13.5 54 M776.5 54 C614.44 54, 452.38 54, 13.5 54 M13.5 54 C4.5 54, 0 49.5, 0 40.5 M13.5 54 C4.5 54, 0 49.5, 0 40.5 M0 40.5 C0 34.49, 0 28.47, 0 13.5 M0 40.5 C0 30.19, 0 19.87, 0 13.5 M0 13.5 C0 4.5, 4.5 0, 13.5 0 M0 13.5 C0 4.5, 4.5 0, 13.5 0" stroke="#64748b" stroke-width="1" fill="none"></path></g><g transform="translate(46 811) rotate(0 379 9)"><text x="0" y="12.5302734375" font-family="Helvetica, sans-serif, Segoe UI Emoji" font-size="14px" fill="#334155" text-anchor="start" style="white-space: pre;" direction="ltr" dominant-baseline="alphabetic">registry.env — indique si les images SHA existent dans le Registry</text></g><g stroke-linecap="round" transform="translate(840 794) rotate(0 395 27)"><path d="M13.5 0 C189.15 0, 364.79 0, 776.5 0 C785.5 0, 790 4.5, 790 13.5 C790 22.21, 790 30.92, 790 40.5 C790 49.5, 785.5 54, 776.5 54 C575.68 54, 374.85 54, 13.5 54 C4.5 54, 0 49.5, 0 40.5 C0 35, 0 29.49, 0 13.5 C0 4.5, 4.5 0, 13.5 0" stroke="none" stroke-width="0" fill="#ffffff"></path><path d="M13.5 0 C253.8 0, 494.1 0, 776.5 0 M13.5 0 C189.09 0, 364.69 0, 776.5 0 M776.5 0 C785.5 0, 790 4.5, 790 13.5 M776.5 0 C785.5 0, 790 4.5, 790 13.5 M790 13.5 C790 19.94, 790 26.38, 790 40.5 M790 13.5 C790 23.23, 790 32.95, 790 40.5 M790 40.5 C790 49.5, 785.5 54, 776.5 54 M790 40.5 C790 49.5, 785.5 54, 776.5 54 M776.5 54 C528.64 54, 280.77 54, 13.5 54 M776.5 54 C523.31 54, 270.11 54, 13.5 54 M13.5 54 C4.5 54, 0 49.5, 0 40.5 M13.5 54 C4.5 54, 0 49.5, 0 40.5 M0 40.5 C0 30.06, 0 19.61, 0 13.5 M0 40.5 C0 35.09, 0 29.68, 0 13.5 M0 13.5 C0 4.5, 4.5 0, 13.5 0 M0 13.5 C0 4.5, 4.5 0, 13.5 0" stroke="#64748b" stroke-width="1" fill="none"></path></g><g transform="translate(856 811) rotate(0 379 9)"><text x="0" y="12.5302734375" font-family="Helvetica, sans-serif, Segoe UI Emoji" font-size="14px" fill="#334155" text-anchor="start" style="white-space: pre;" direction="ltr" dominant-baseline="alphabetic">front/dist/... — fichiers Angular utilisés pour construire l’image frontend</text></g><g stroke-linecap="round" transform="translate(30 862) rotate(0 395 27)"><path d="M13.5 0 C191.84 0, 370.17 0, 776.5 0 C785.5 0, 790 4.5, 790 13.5 C790 21.62, 790 29.74, 790 40.5 C790 49.5, 785.5 54, 776.5 54 C514.28 54, 252.05 54, 13.5 54 C4.5 54, 0 49.5, 0 40.5 C0 30.01, 0 19.52, 0 13.5 C0 4.5, 4.5 0, 13.5 0" stroke="none" stroke-width="0" fill="#ffffff"></path><path d="M13.5 0 C278.19 0, 542.89 0, 776.5 0 M13.5 0 C294.66 0, 575.82 0, 776.5 0 M776.5 0 C785.5 0, 790 4.5, 790 13.5 M776.5 0 C785.5 0, 790 4.5, 790 13.5 M790 13.5 C790 20.49, 790 27.48, 790 40.5 M790 13.5 C790 23.96, 790 34.42, 790 40.5 M790 40.5 C790 49.5, 785.5 54, 776.5 54 M790 40.5 C790 49.5, 785.5 54, 776.5 54 M776.5 54 C606.97 54, 437.43 54, 13.5 54 M776.5 54 C497.89 54, 219.29 54, 13.5 54 M13.5 54 C4.5 54, 0 49.5, 0 40.5 M13.5 54 C4.5 54, 0 49.5, 0 40.5 M0 40.5 C0 29.75, 0 19, 0 13.5 M0 40.5 C0 34.1, 0 27.7, 0 13.5 M0 13.5 C0 4.5, 4.5 0, 13.5 0 M0 13.5 C0 4.5, 4.5 0, 13.5 0" stroke="#64748b" stroke-width="1" fill="none"></path></g><g transform="translate(46 879) rotate(0 379 9)"><text x="0" y="12.5302734375" font-family="Helvetica, sans-serif, Segoe UI Emoji" font-size="14px" fill="#334155" text-anchor="start" style="white-space: pre;" direction="ltr" dominant-baseline="alphabetic">microcrm-0.0.1-SNAPSHOT.jar — application Java utilisée pour construire l’image backend</text></g><g stroke-linecap="round" transform="translate(840 862) rotate(0 395 27)"><path d="M13.5 0 C257.58 0, 501.66 0, 776.5 0 C785.5 0, 790 4.5, 790 13.5 C790 20.59, 790 27.68, 790 40.5 C790 49.5, 785.5 54, 776.5 54 C531.8 54, 287.1 54, 13.5 54 C4.5 54, 0 49.5, 0 40.5 C0 31.36, 0 22.22, 0 13.5 C0 4.5, 4.5 0, 13.5 0" stroke="none" stroke-width="0" fill="#ffffff"></path><path d="M13.5 0 C176.19 0, 338.88 0, 776.5 0 M13.5 0 C300.44 0, 587.38 0, 776.5 0 M776.5 0 C785.5 0, 790 4.5, 790 13.5 M776.5 0 C785.5 0, 790 4.5, 790 13.5 M790 13.5 C790 22.4, 790 31.31, 790 40.5 M790 13.5 C790 19.34, 790 25.19, 790 40.5 M790 40.5 C790 49.5, 785.5 54, 776.5 54 M790 40.5 C790 49.5, 785.5 54, 776.5 54 M776.5 54 C560.55 54, 344.6 54, 13.5 54 M776.5 54 C575.06 54, 373.62 54, 13.5 54 M13.5 54 C4.5 54, 0 49.5, 0 40.5 M13.5 54 C4.5 54, 0 49.5, 0 40.5 M0 40.5 C0 35.05, 0 29.61, 0 13.5 M0 40.5 C0 30.39, 0 20.28, 0 13.5 M0 13.5 C0 4.5, 4.5 0, 13.5 0 M0 13.5 C0 4.5, 4.5 0, 13.5 0" stroke="#64748b" stroke-width="1" fill="none"></path></g><g transform="translate(856 879) rotate(0 379 9)"><text x="0" y="12.5302734375" font-family="Helvetica, sans-serif, Segoe UI Emoji" font-size="14px" fill="#334155" text-anchor="start" style="white-space: pre;" direction="ltr" dominant-baseline="alphabetic">frontend.tar — archive de l’image frontend pour le scan et la publication</text></g><g stroke-linecap="round" transform="translate(30 930) rotate(0 395 27)"><path d="M13.5 0 C318.36 0, 623.23 0, 776.5 0 C785.5 0, 790 4.5, 790 13.5 C790 23.9, 790 34.29, 790 40.5 C790 49.5, 785.5 54, 776.5 54 C568.91 54, 361.32 54, 13.5 54 C4.5 54, 0 49.5, 0 40.5 C0 32.47, 0 24.44, 0 13.5 C0 4.5, 4.5 0, 13.5 0" stroke="none" stroke-width="0" fill="#ffffff"></path><path d="M13.5 0 C224.77 0, 436.03 0, 776.5 0 M13.5 0 C249.48 0, 485.45 0, 776.5 0 M776.5 0 C785.5 0, 790 4.5, 790 13.5 M776.5 0 C785.5 0, 790 4.5, 790 13.5 M790 13.5 C790 24.28, 790 35.05, 790 40.5 M790 13.5 C790 21.13, 790 28.77, 790 40.5 M790 40.5 C790 49.5, 785.5 54, 776.5 54 M790 40.5 C790 49.5, 785.5 54, 776.5 54 M776.5 54 C620.14 54, 463.77 54, 13.5 54 M776.5 54 C616.84 54, 457.19 54, 13.5 54 M13.5 54 C4.5 54, 0 49.5, 0 40.5 M13.5 54 C4.5 54, 0 49.5, 0 40.5 M0 40.5 C0 33.96, 0 27.42, 0 13.5 M0 40.5 C0 30.26, 0 20.02, 0 13.5 M0 13.5 C0 4.5, 4.5 0, 13.5 0 M0 13.5 C0 4.5, 4.5 0, 13.5 0" stroke="#64748b" stroke-width="1" fill="none"></path></g><g transform="translate(46 947) rotate(0 379 9)"><text x="0" y="12.5302734375" font-family="Helvetica, sans-serif, Segoe UI Emoji" font-size="14px" fill="#334155" text-anchor="start" style="white-space: pre;" direction="ltr" dominant-baseline="alphabetic">backend.tar — archive de l’image backend pour le scan et la publication</text></g><g stroke-linecap="round" transform="translate(840 930) rotate(0 395 27)"><path d="M13.5 0 C238.31 0, 463.11 0, 776.5 0 C785.5 0, 790 4.5, 790 13.5 C790 19.15, 790 24.79, 790 40.5 C790 49.5, 785.5 54, 776.5 54 C543.39 54, 310.29 54, 13.5 54 C4.5 54, 0 49.5, 0 40.5 C0 30.73, 0 20.95, 0 13.5 C0 4.5, 4.5 0, 13.5 0" stroke="none" stroke-width="0" fill="#ffffff"></path><path d="M13.5 0 C265.26 0, 517.03 0, 776.5 0 M13.5 0 C239.68 0, 465.86 0, 776.5 0 M776.5 0 C785.5 0, 790 4.5, 790 13.5 M776.5 0 C785.5 0, 790 4.5, 790 13.5 M790 13.5 C790 24.05, 790 34.59, 790 40.5 M790 13.5 C790 22.76, 790 32.02, 790 40.5 M790 40.5 C790 49.5, 785.5 54, 776.5 54 M790 40.5 C790 49.5, 785.5 54, 776.5 54 M776.5 54 C559.23 54, 341.96 54, 13.5 54 M776.5 54 C567.96 54, 359.42 54, 13.5 54 M13.5 54 C4.5 54, 0 49.5, 0 40.5 M13.5 54 C4.5 54, 0 49.5, 0 40.5 M0 40.5 C0 30.23, 0 19.96, 0 13.5 M0 40.5 C0 33.36, 0 26.22, 0 13.5 M0 13.5 C0 4.5, 4.5 0, 13.5 0 M0 13.5 C0 4.5, 4.5 0, 13.5 0" stroke="#64748b" stroke-width="1" fill="none"></path></g><g transform="translate(856 947) rotate(0 379 9)"><text x="0" y="12.5302734375" font-family="Helvetica, sans-serif, Segoe UI Emoji" font-size="14px" fill="#334155" text-anchor="start" style="white-space: pre;" direction="ltr" dominant-baseline="alphabetic">images.env — digests immuables frontend/backend transmis à la suite</text></g><g stroke-linecap="round" transform="translate(30 998) rotate(0 395 27)"><path d="M13.5 0 C273.56 0, 533.63 0, 776.5 0 C785.5 0, 790 4.5, 790 13.5 C790 20.74, 790 27.98, 790 40.5 C790 49.5, 785.5 54, 776.5 54 C587.05 54, 397.59 54, 13.5 54 C4.5 54, 0 49.5, 0 40.5 C0 34.78, 0 29.05, 0 13.5 C0 4.5, 4.5 0, 13.5 0" stroke="none" stroke-width="0" fill="#ffffff"></path><path d="M13.5 0 C295.7 0, 577.9 0, 776.5 0 M13.5 0 C299.01 0, 584.52 0, 776.5 0 M776.5 0 C785.5 0, 790 4.5, 790 13.5 M776.5 0 C785.5 0, 790 4.5, 790 13.5 M790 13.5 C790 19.63, 790 25.77, 790 40.5 M790 13.5 C790 22.64, 790 31.79, 790 40.5 M790 40.5 C790 49.5, 785.5 54, 776.5 54 M790 40.5 C790 49.5, 785.5 54, 776.5 54 M776.5 54 C480.09 54, 183.67 54, 13.5 54 M776.5 54 C531.13 54, 285.75 54, 13.5 54 M13.5 54 C4.5 54, 0 49.5, 0 40.5 M13.5 54 C4.5 54, 0 49.5, 0 40.5 M0 40.5 C0 34.79, 0 29.08, 0 13.5 M0 40.5 C0 34.32, 0 28.13, 0 13.5 M0 13.5 C0 4.5, 4.5 0, 13.5 0 M0 13.5 C0 4.5, 4.5 0, 13.5 0" stroke="#64748b" stroke-width="1" fill="none"></path></g><g transform="translate(46 1015) rotate(0 379 9)"><text x="0" y="12.5302734375" font-family="Helvetica, sans-serif, Segoe UI Emoji" font-size="14px" fill="#334155" text-anchor="start" style="white-space: pre;" direction="ltr" dominant-baseline="alphabetic">microcrm-*.tgz — chart Helm versionné utilisé pour le déploiement</text></g><g stroke-linecap="round" transform="translate(840 998) rotate(0 395 27)"><path d="M13.5 0 C183.71 0, 353.93 0, 776.5 0 C785.5 0, 790 4.5, 790 13.5 C790 20.86, 790 28.21, 790 40.5 C790 49.5, 785.5 54, 776.5 54 C559.49 54, 342.49 54, 13.5 54 C4.5 54, 0 49.5, 0 40.5 C0 33.47, 0 26.43, 0 13.5 C0 4.5, 4.5 0, 13.5 0" stroke="none" stroke-width="0" fill="#ffffff"></path><path d="M13.5 0 C201.02 0, 388.54 0, 776.5 0 M13.5 0 C287.11 0, 560.71 0, 776.5 0 M776.5 0 C785.5 0, 790 4.5, 790 13.5 M776.5 0 C785.5 0, 790 4.5, 790 13.5 M790 13.5 C790 23.62, 790 33.75, 790 40.5 M790 13.5 C790 22.96, 790 32.42, 790 40.5 M790 40.5 C790 49.5, 785.5 54, 776.5 54 M790 40.5 C790 49.5, 785.5 54, 776.5 54 M776.5 54 C577.28 54, 378.05 54, 13.5 54 M776.5 54 C594.73 54, 412.97 54, 13.5 54 M13.5 54 C4.5 54, 0 49.5, 0 40.5 M13.5 54 C4.5 54, 0 49.5, 0 40.5 M0 40.5 C0 31.66, 0 22.81, 0 13.5 M0 40.5 C0 31.15, 0 21.81, 0 13.5 M0 13.5 C0 4.5, 4.5 0, 13.5 0 M0 13.5 C0 4.5, 4.5 0, 13.5 0" stroke="#64748b" stroke-width="1" fill="none"></path></g><g transform="translate(856 1015) rotate(0 379 9)"><text x="0" y="12.5302734375" font-family="Helvetica, sans-serif, Segoe UI Emoji" font-size="14px" fill="#334155" text-anchor="start" style="white-space: pre;" direction="ltr" dominant-baseline="alphabetic">release-manifest.json — relie version, commit, pipeline et digests</text></g><g stroke-linecap="round" transform="translate(30 1066) rotate(0 395 27)"><path d="M13.5 0 C249.84 0, 486.18 0, 776.5 0 C785.5 0, 790 4.5, 790 13.5 C790 23.14, 790 32.79, 790 40.5 C790 49.5, 785.5 54, 776.5 54 C486.15 54, 195.8 54, 13.5 54 C4.5 54, 0 49.5, 0 40.5 C0 31.46, 0 22.42, 0 13.5 C0 4.5, 4.5 0, 13.5 0" stroke="none" stroke-width="0" fill="#ffffff"></path><path d="M13.5 0 C265.34 0, 517.19 0, 776.5 0 M13.5 0 C220.49 0, 427.47 0, 776.5 0 M776.5 0 C785.5 0, 790 4.5, 790 13.5 M776.5 0 C785.5 0, 790 4.5, 790 13.5 M790 13.5 C790 21.46, 790 29.43, 790 40.5 M790 13.5 C790 21.58, 790 29.66, 790 40.5 M790 40.5 C790 49.5, 785.5 54, 776.5 54 M790 40.5 C790 49.5, 785.5 54, 776.5 54 M776.5 54 C502.8 54, 229.09 54, 13.5 54 M776.5 54 C582.11 54, 387.71 54, 13.5 54 M13.5 54 C4.5 54, 0 49.5, 0 40.5 M13.5 54 C4.5 54, 0 49.5, 0 40.5 M0 40.5 C0 31.2, 0 21.9, 0 13.5 M0 40.5 C0 31.36, 0 22.21, 0 13.5 M0 13.5 C0 4.5, 4.5 0, 13.5 0 M0 13.5 C0 4.5, 4.5 0, 13.5 0" stroke="#64748b" stroke-width="1" fill="none"></path></g><g transform="translate(46 1083) rotate(0 379 9)"><text x="0" y="12.5302734375" font-family="Helvetica, sans-serif, Segoe UI Emoji" font-size="14px" fill="#334155" text-anchor="start" style="white-space: pre;" direction="ltr" dominant-baseline="alphabetic">outputs.json — sorties Terraform utiles aux jobs d’infrastructure</text></g><g stroke-linecap="round" transform="translate(840 1066) rotate(0 395 27)"><path d="M13.5 0 C239.03 0, 464.57 0, 776.5 0 C785.5 0, 790 4.5, 790 13.5 C790 21.68, 790 29.86, 790 40.5 C790 49.5, 785.5 54, 776.5 54 C510.37 54, 244.25 54, 13.5 54 C4.5 54, 0 49.5, 0 40.5 C0 32.88, 0 25.25, 0 13.5 C0 4.5, 4.5 0, 13.5 0" stroke="none" stroke-width="0" fill="#ffffff"></path><path d="M13.5 0 C243.53 0, 473.55 0, 776.5 0 M13.5 0 C287.52 0, 561.54 0, 776.5 0 M776.5 0 C785.5 0, 790 4.5, 790 13.5 M776.5 0 C785.5 0, 790 4.5, 790 13.5 M790 13.5 C790 23.61, 790 33.73, 790 40.5 M790 13.5 C790 19.62, 790 25.74, 790 40.5 M790 40.5 C790 49.5, 785.5 54, 776.5 54 M790 40.5 C790 49.5, 785.5 54, 776.5 54 M776.5 54 C603.15 54, 429.79 54, 13.5 54 M776.5 54 C521.59 54, 266.68 54, 13.5 54 M13.5 54 C4.5 54, 0 49.5, 0 40.5 M13.5 54 C4.5 54, 0 49.5, 0 40.5 M0 40.5 C0 30.45, 0 20.39, 0 13.5 M0 40.5 C0 30.62, 0 20.75, 0 13.5 M0 13.5 C0 4.5, 4.5 0, 13.5 0 M0 13.5 C0 4.5, 4.5 0, 13.5 0" stroke="#64748b" stroke-width="1" fill="none"></path></g><g transform="translate(856 1083) rotate(0 379 9)"><text x="0" y="12.5302734375" font-family="Helvetica, sans-serif, Segoe UI Emoji" font-size="14px" fill="#334155" text-anchor="start" style="white-space: pre;" direction="ltr" dominant-baseline="alphabetic">public/ — rapport DORA publie par GitLab Pages</text></g></svg>